<?xml version="1.0" standalone="no"?>
<!DOCTYPE svg PUBLIC "-//W3C//DTD SVG 20010904//EN"
 "http://www.w3.org/TR/2001/REC-SVG-20010904/DTD/svg10.dtd">
<svg version="1.0" xmlns="http://www.w3.org/2000/svg"
 width="400.000000pt" height="400.000000pt" viewBox="0 0 400.000000 400.000000"
 preserveAspectRatio="xMidYMid meet">

<g transform="translate(0.000000,400.000000) scale(0.100000,-0.100000)"
fill="#ff6363ff" stroke="none">
<path d="M1820 3494 c-433 -38 -760 -130 -1115 -312 -82 -43 -197 -109 -255
-147 -122 -81 -323 -241 -397 -317 l-53 -53 168 -168 168 -168 84 77 c350 318
772 517 1250 591 160 24 501 24 660 -1 483 -75 892 -267 1250 -589 l85 -77
168 168 168 167 -93 89 c-51 49 -148 130 -215 180 -391 292 -846 477 -1328
541 -115 16 -452 27 -545 19z"/>
<path d="M1860 2630 c-263 -20 -501 -85 -735 -202 -167 -84 -376 -230 -477
-335 l-38 -39 168 -167 167 -167 75 65 c206 179 471 305 735 351 134 23 358
23 490 0 267 -46 528 -171 735 -351 l75 -65 167 167 168 168 -43 43 c-55 58
-181 156 -288 226 -347 225 -784 336 -1199 306z"/>
<path d="M1825 1760 c-205 -37 -416 -139 -554 -267 l-52 -48 170 -169 169
-169 48 42 c56 49 165 105 249 126 74 19 211 19 290 0 81 -19 191 -75 249
-126 l48 -42 169 169 170 169 -52 48 c-124 115 -281 198 -469 248 -85 23 -349
34 -435 19z"/>
<path d="M1914 963 c-129 -55 -186 -189 -134 -311 73 -169 284 -201 403 -62
59 69 73 180 33 258 -19 36 -72 89 -111 109 -45 24 -142 27 -191 6z"/>
</g>
</svg>
